<svg width="547" height="810" viewBox="0 0 547 810" fill="none" xmlns="http://www.w3.org/2000/svg">
<path d="M372.789 660.765L271.855 602.466C264.581 598.272 265.485 590.928 273.891 586.073L339.307 548.327L466.606 621.818L401.277 659.564C392.785 664.437 380.064 664.959 372.789 660.765Z" fill="#B1B4C4"/>
<path d="M466.589 621.818V617.972L460.707 621.366L466.589 621.818Z" fill="#B1B4C4"/>
<path d="M266.93 595.523V591.607L272.969 594.113L266.93 595.523Z" fill="#B1B4C4"/>
<path d="M372.789 656.901L271.855 598.62C264.581 594.408 265.485 587.082 273.891 582.227L339.307 544.463L466.606 617.971L401.277 655.718C392.785 660.573 380.064 661.112 372.789 656.901Z" fill="#D6D8E5"/>
<path d="M339.62 544.637L323.871 492.36L452.562 566.182L466.589 617.972L339.62 544.637Z" fill="#9EA1AF"/>
<path d="M462.865 620.112L466.589 617.972L461.037 613.534L462.865 620.112Z" fill="#9EA1AF"/>
<path d="M335.565 546.604L319.816 494.327L448.508 568.148L462.847 620.113L335.565 546.604Z" fill="#B1B4C4"/>
<path d="M662.315 708.291L164.099 420.609C157.138 416.572 151.447 405.747 151.447 396.437V11.0916C151.447 1.76378 157.12 -2.51725 164.099 1.52015L662.315 289.133C669.276 293.17 674.966 303.995 674.966 313.305V698.65C674.914 707.961 669.276 712.242 662.315 708.291Z" fill="#C4C7D6"/>
<path d="M150.559 3.90463L155.989 0.754761L163.803 5.22723C163.803 5.22723 155.484 6.49761 155.275 6.44541C155.067 6.3932 150.559 3.90463 150.559 3.90463Z" fill="#B1B4C4"/>
<path d="M657.686 710.85L159.539 423.237C152.578 419.2 146.888 408.393 146.888 399.065V13.7196C146.888 4.40922 152.543 0.128179 159.539 4.16558L657.686 291.778C664.647 295.816 670.337 306.64 670.337 315.95V701.331C670.337 710.606 664.682 714.887 657.686 710.85Z" fill="#E4E7F2"/>
<path d="M656.816 711.354L158.652 423.742C151.691 419.704 146 408.88 146 399.569V14.224C146 4.91361 151.673 0.632574 158.652 4.66997L656.816 292.37C663.777 296.389 669.467 307.214 669.467 316.542V701.783C669.467 711.111 663.794 715.392 656.816 711.354Z" fill="#D6D8E5"/>
<path d="M662.611 687.913L152.422 393.304L152.596 15.7727C152.596 11.9093 155.31 10.3431 158.652 12.2922L656.816 299.887C658.572 301.033 660.034 302.574 661.086 304.388C662.138 306.201 662.749 308.236 662.872 310.329L662.611 687.913Z" fill="white"/>
<path d="M353.803 177.652L190.359 83.2951C189.605 82.7513 188.988 82.0383 188.559 81.2133C188.13 80.3882 187.9 79.4741 187.888 78.5442V67.1455C187.888 65.4053 188.984 64.4829 190.359 65.266L353.803 159.623C354.555 160.169 355.169 160.883 355.598 161.708C356.027 162.532 356.258 163.445 356.274 164.374V175.772C356.274 177.6 355.161 178.452 353.803 177.652Z" fill="#E9EAF2"/>
<path d="M311.828 180.384L191.107 110.687C190.35 110.148 189.73 109.439 189.298 108.617C188.865 107.795 188.633 106.882 188.619 105.953V100.28C188.619 98.5396 189.732 97.5999 191.107 98.4004L311.828 168.098C312.575 168.643 313.184 169.354 313.607 170.176C314.03 170.998 314.255 171.907 314.265 172.831V178.504C314.265 180.332 313.186 181.185 311.828 180.384Z" fill="#E9EAF2"/>
<path d="M311.828 201.876L191.107 132.265C190.35 131.727 189.73 131.018 189.298 130.196C188.865 129.373 188.633 128.461 188.619 127.532V121.824C188.619 120.084 189.732 119.144 191.107 119.944L311.828 189.694C312.582 190.235 313.197 190.945 313.626 191.767C314.056 192.589 314.286 193.5 314.3 194.427V200.101C314.265 201.876 313.186 202.694 311.828 201.876Z" fill="#E9EAF2"/>
<path d="M289.049 210.265L191.107 153.706C190.35 153.168 189.73 152.459 189.298 151.637C188.865 150.814 188.633 149.902 188.619 148.973V143.299C188.619 141.559 189.732 140.619 191.107 141.42L289.049 197.961C289.805 198.504 290.424 199.216 290.856 200.041C291.289 200.866 291.522 201.781 291.537 202.712V208.385C291.537 210.212 290.423 211.048 289.049 210.265Z" fill="#5DC2A4"/>
<path d="M353.803 403.468L190.359 309.111C189.605 308.567 188.988 307.854 188.559 307.029C188.13 306.204 187.9 305.29 187.888 304.36V292.961C187.888 291.134 188.984 290.298 190.359 291.082L353.803 385.438C354.555 385.985 355.169 386.699 355.598 387.523C356.027 388.348 356.258 389.26 356.274 390.189V401.588C356.274 403.415 355.161 404.251 353.803 403.468Z" fill="#E9EAF2"/>
<path d="M311.828 406.2L191.107 336.589C190.351 336.046 189.731 335.334 189.299 334.509C188.867 333.684 188.634 332.769 188.619 331.838V326.165C188.619 324.338 189.732 323.503 191.107 324.303L311.828 393.913C312.58 394.46 313.194 395.174 313.623 395.998C314.052 396.822 314.283 397.735 314.3 398.664V404.338C314.265 406.147 313.186 406.983 311.828 406.2Z" fill="#E9EAF2"/>
<path d="M311.828 427.709L191.107 358.012C190.352 357.472 189.734 356.763 189.301 355.941C188.869 355.119 188.635 354.207 188.619 353.279V347.605C188.619 345.865 189.732 344.943 191.107 345.743L311.828 415.354C312.58 415.9 313.194 416.614 313.623 417.438C314.052 418.263 314.283 419.175 314.3 420.105V425.778C314.265 427.657 313.186 428.493 311.828 427.709Z" fill="#E9EAF2"/>
<path d="M289.049 436.063L191.107 379.522C190.35 378.98 189.73 378.268 189.298 377.443C188.865 376.618 188.633 375.702 188.619 374.771V369.098C188.619 367.271 189.732 366.435 191.107 367.236L289.049 423.777C289.805 424.32 290.424 425.032 290.856 425.857C291.289 426.682 291.522 427.597 291.537 428.528V434.201C291.537 436.028 290.423 436.811 289.049 436.063Z" fill="#5DC2A4"/>
<path d="M397.536 431.485C397.536 431.485 415.565 446.626 441.599 425.951C460.185 410.707 476.804 419.408 486.062 424.629C495.32 429.85 508.686 433.052 534.145 479.029C534.145 479.029 542.429 493.439 556.107 501.339C569.786 509.24 576.364 505.377 587.119 489.158C597.873 472.938 604.921 454.979 624.691 466.708V629.753L395.761 497.72V430.424L397.536 431.485Z" fill="#F5F6FF"/>
<path d="M347.782 362.363L191.16 271.869C190.403 271.326 189.784 270.614 189.352 269.789C188.92 268.964 188.686 268.049 188.671 267.118V176.747C188.671 175.006 189.785 174.084 191.16 174.867L347.782 265.361C348.539 265.904 349.158 266.616 349.59 267.441C350.022 268.266 350.255 269.18 350.271 270.112V360.518C350.271 362.31 349.157 363.146 347.782 362.363Z" fill="#E9EAF2"/>
<path d="M395.761 427.693V497.686L624.691 629.841V466.796" stroke="#E9EAF2" stroke-width="0.31" stroke-miterlimit="10"/>
<path d="M485.732 425.448V549.458" stroke="#E9EAF2" stroke-width="0.31" stroke-miterlimit="10"/>
<path d="M395.761 430.425C436.378 455.606 442.121 398.682 486.376 424.229C530.63 449.776 524.522 483.067 557.186 501.932C589.851 520.796 590.617 447.114 624.691 466.796" stroke="#E9EAF2" stroke-width="1.53" stroke-miterlimit="10"/>
<path d="M489.54 432.085C491.646 430.869 491.643 426.921 489.533 423.267C487.424 419.613 484.006 417.636 481.901 418.852C479.795 420.068 479.798 424.016 481.907 427.67C484.017 431.324 487.434 433.301 489.54 432.085Z" fill="#5DC2A4"/>
<path d="M399.581 437.056C401.687 435.841 401.684 431.893 399.574 428.239C397.464 424.585 394.047 422.608 391.941 423.824C389.835 425.04 389.838 428.988 391.948 432.642C394.058 436.296 397.475 438.272 399.581 437.056Z" fill="#5DC2A4"/>
<path d="M402.217 310.172L392.837 304.76C392.08 304.217 391.461 303.505 391.029 302.68C390.597 301.855 390.364 300.94 390.348 300.009V254.763C390.348 252.935 391.462 252.1 392.837 252.883L402.217 258.313C402.972 258.837 403.595 259.529 404.036 260.336C404.477 261.142 404.724 262.041 404.758 262.959V308.293C404.758 310.12 403.592 310.956 402.217 310.172Z" fill="#E9EAF2"/>
<path d="M423.9 322.65L414.52 317.22C413.763 316.682 413.143 315.973 412.711 315.151C412.279 314.329 412.046 313.416 412.032 312.487V220.253C412.032 218.513 413.146 217.573 414.52 218.374L423.9 223.803C424.657 224.346 425.276 225.059 425.708 225.884C426.14 226.709 426.373 227.623 426.389 228.554V320.788C426.319 322.598 425.206 323.433 423.9 322.65Z" fill="#5DC2A4"/>
<path d="M467.041 347.588L457.661 342.176C456.901 341.636 456.28 340.924 455.848 340.098C455.415 339.273 455.184 338.357 455.173 337.425V254.171C455.173 252.343 456.286 251.508 457.661 252.291L467.041 257.703C467.798 258.246 468.417 258.959 468.849 259.784C469.281 260.609 469.514 261.523 469.53 262.454V345.726C469.53 347.553 468.416 348.388 467.041 347.588Z" fill="#E9EAF2"/>
<path d="M488.655 360.065L479.275 354.653C478.519 354.11 477.899 353.398 477.467 352.573C477.035 351.748 476.802 350.833 476.787 349.902V280.918C476.787 279.178 477.9 278.256 479.275 279.039L488.655 284.468C489.412 285.007 490.032 285.716 490.465 286.538C490.897 287.36 491.13 288.273 491.144 289.202V358.186C491.144 360.03 490.03 360.866 488.655 360.065Z" fill="#5DC2A4"/>
<path d="M531.692 384.917L522.294 379.504C521.54 378.961 520.923 378.248 520.494 377.423C520.065 376.598 519.835 375.683 519.823 374.753V340.662C519.823 338.817 520.92 337.982 522.294 338.782L531.692 344.195C532.443 344.741 533.057 345.455 533.486 346.279C533.915 347.104 534.147 348.016 534.163 348.945V383.037C534.163 384.864 533.049 385.7 531.692 384.917Z" fill="#E9EAF2"/>
<path d="M553.288 397.394L543.978 391.964C543.22 391.426 542.6 390.717 542.168 389.895C541.736 389.072 541.503 388.16 541.489 387.231V271.277C541.489 269.433 542.603 268.597 543.978 269.398L553.358 274.81C554.115 275.352 554.735 276.064 555.167 276.889C555.6 277.715 555.832 278.63 555.846 279.561V395.514C555.777 397.342 554.663 398.177 553.288 397.394Z" fill="#5DC2A4"/>
<path d="M199.856 496.989L112.933 446.806C106.996 443.381 102.201 434.2 102.201 426.304V286.402C102.201 278.494 107.008 274.865 112.933 278.29L199.856 328.473C205.78 331.898 210.587 341.079 210.587 348.974V488.877C210.587 496.845 205.78 500.45 199.856 496.989Z" fill="#D0D2DE"/>
<path d="M200.4 501.413L206.969 497.523L199 483L200.4 501.413Z" fill="#D0D2DE"/>
<path d="M106.278 277.513L99.6373 281.52L107 298L106.278 277.513Z" fill="#D0D2DE"/>
<path d="M193.702 500.714L106.732 450.519C100.807 447.106 96 437.961 96 430.018V290.151C96 282.256 100.807 278.614 106.732 282.039L193.702 332.211C199.627 335.635 204.434 344.817 204.434 352.724V492.591C204.386 500.45 199.579 504.127 193.702 500.714Z" fill="white"/>
<path d="M187 369L113 324.532V302L187 346.456V369Z" fill="#E9EAF2"/>
<path d="M133.555 381.757L113.173 369.98V347.677L133.555 359.453V381.757Z" fill="#5DC2A4"/>
<path d="M160.39 397.247L139.996 385.47V363.167L160.39 374.943V397.247Z" fill="#5DC2A4"/>
<path d="M133.555 415.213L113.173 403.436V381.132L133.555 392.909V415.213Z" fill="#5DC2A4"/>
<path d="M160.39 430.703L139.996 418.926V396.622L160.39 408.399V430.703Z" fill="#5DC2A4"/>
<path d="M187.213 446.193L166.831 434.416V412.112L187.213 423.889V446.193Z" fill="#5DC2A4"/>
<path d="M133.555 448.668L113.173 436.891V414.588L133.555 426.365V448.668Z" fill="#5DC2A4"/>
<path d="M160.39 464.158L139.996 452.381V430.078L160.39 441.854V464.158Z" fill="#5DC2A4"/>
<path d="M187.213 479.648L166.831 467.871V445.568L187.213 457.345V479.648Z" fill="#5DC2A4"/>
<path d="M470 770.703L418.686 741.067L425.107 682.573L463.593 704.781L470 770.703Z" fill="#9F9F9F"/>
<path d="M456.669 778.101L405.355 748.481L411.777 689.972L450.262 712.195L456.669 778.101Z" fill="white"/>
<path d="M456.669 778.102L470 770.704L463.593 704.782L450.262 712.195L456.669 778.102Z" fill="#E2E2E2"/>
<path d="M411.776 689.971L425.107 682.573L423.542 696.766L411.776 689.971Z" fill="#737373"/>
<path d="M440.622 706.505L438.252 705.069C438.252 699.553 435.005 693.175 431.069 690.876C427.133 688.578 423.886 691.192 423.886 696.708L421.516 695.344C421.516 688.305 425.826 685.073 431.126 688.161C436.427 691.25 440.622 699.467 440.622 706.505Z" fill="white"/>
<path d="M453.135 698.835L450.764 697.47C450.764 691.94 447.518 685.576 443.582 683.278C439.645 680.979 436.399 683.58 436.399 689.11L434.028 687.745C434.028 680.706 438.338 677.474 443.639 680.563C448.94 683.651 453.135 691.825 453.135 698.835Z" fill="#E2E2E2"/>
<path d="M424.059 656.156C426.932 656.975 428.512 660.121 430.997 666.829C433.076 672.912 434.086 679.307 433.986 685.734C433.195 692.054 430.581 696.967 424.246 702.096L421.229 696.565C421.229 696.565 427.42 691.092 428.053 684.771C428.412 681.223 424.246 669.257 424.246 668.97C424.246 668.682 424.059 656.156 424.059 656.156Z" fill="#FFCEA9"/>
<path d="M399.279 801.861C398.322 802.156 397.312 802.239 396.32 802.105C395.328 801.971 394.377 801.623 393.532 801.085C391.981 801.085 382.902 797.537 381.753 800.554C380.761 803.197 384.396 805.639 386.335 806.113C390.573 807.147 393.719 809.259 395.429 809.618C396.079 809.845 396.775 809.913 397.458 809.816C398.14 809.718 398.789 809.458 399.35 809.058C400.629 807.866 400.471 803.441 399.279 801.861Z" fill="#4F4F51"/>
<path d="M395.443 808.886C393.733 808.527 390.587 806.415 386.349 805.381C384.726 804.993 381.911 803.212 381.638 801.071C381.25 803.499 384.511 805.668 386.349 806.099C390.587 807.133 393.733 809.245 395.443 809.604C396.094 809.831 396.79 809.899 397.472 809.801C398.154 809.704 398.803 809.444 399.365 809.044C399.625 808.756 399.817 808.412 399.925 808.038C399.295 808.519 398.562 808.846 397.784 808.993C397.006 809.14 396.204 809.103 395.443 808.886Z" fill="#878787"/>
<path d="M422.349 789.866C421.52 790.152 420.633 790.234 419.765 790.104C418.897 789.974 418.074 789.636 417.364 789.119C415.928 789.119 406.59 785.7 405.484 788.616C404.522 791.158 408.027 793.514 409.894 793.96C413.974 794.951 417.005 796.991 418.643 797.335C419.269 797.557 419.939 797.624 420.597 797.531C421.255 797.439 421.88 797.189 422.421 796.804C423.614 795.655 423.484 791.388 422.349 789.866Z" fill="#4F4F51"/>
<path d="M418.643 796.632C417.005 796.287 413.974 794.247 409.894 793.256C408.328 792.883 405.585 791.159 405.355 789.119C404.996 791.461 408.156 793.544 409.894 793.96C413.974 794.951 417.005 796.991 418.643 797.336C419.269 797.557 419.939 797.624 420.597 797.532C421.254 797.439 421.88 797.19 422.421 796.804C422.674 796.526 422.856 796.191 422.953 795.828C422.347 796.288 421.641 796.601 420.893 796.741C420.145 796.88 419.374 796.843 418.643 796.632Z" fill="#878787"/>
<path d="M425.395 766.825C425.398 763.338 424.796 759.877 423.613 756.597C423.613 756.597 424.806 742.591 425.697 733.397C427.004 719.837 429.087 718.501 428.498 710.269C427.952 702.627 423.613 697.671 422.479 692.5L400.341 694.252C400.341 694.252 398.416 700.516 395.931 713.013C393.446 725.511 393.288 740.379 393.518 760.073C393.589 765.144 392.656 769.554 392.957 782.195C393.158 790.699 393.633 801.1 393.633 801.1C396.879 803.886 399.12 801.832 399.12 801.832C399.12 801.832 404.795 776.665 405.628 770.876C406.231 767.679 405.963 764.38 404.852 761.323C404.852 761.323 406.518 753.408 407.725 747.188C409.234 739.603 412.94 723.212 412.94 723.212C412.94 723.212 412.308 748.394 413.414 753.379C414.52 758.364 414.707 762.659 415.641 769.41C416.775 777.584 417.293 789.521 417.293 789.521C420.669 791.662 422.163 790.01 422.163 790.01C422.163 790.01 425.395 773.964 425.395 766.825Z" fill="#FFCEA9"/>
<path d="M422.479 692.5C424.791 694.87 428.627 702.096 428.627 713.028C428.627 725.324 426.831 722.825 425.984 736.385L425.122 749.931C425.122 749.931 406.633 758.751 393.446 750.563C392.268 748.006 393.891 719.521 396.19 709.393C398.488 699.266 400.111 694.296 400.111 694.296C400.111 694.296 417.12 698.835 422.479 692.5Z" fill="#5DC2A4"/>
<path d="M422.737 656.028C418.025 655.755 417.58 656.53 417.192 654.864C417.063 654.261 416.804 650.109 416.804 650.109C417.238 649.558 417.631 648.978 417.982 648.371C420.135 647.053 421.821 645.093 422.801 642.767C423.781 640.441 424.008 637.865 423.448 635.404C422.888 632.943 421.57 630.719 419.68 629.046C417.79 627.372 415.423 626.334 412.911 626.076C406.648 625.416 402.051 629.811 400.83 635.845C400.169 638.818 399.48 644.909 401.333 649.779C402.381 652.537 403.344 654.476 405.843 654.376C406.673 654.301 407.495 654.157 408.3 653.945C408.434 655.089 408.482 656.241 408.444 657.392C408.372 658.599 408.587 659.217 406.217 660.667C403.847 662.118 409.794 665.106 413.658 664.819C417.523 664.532 421.89 662.176 423.097 659.676C424.418 656.875 424.964 656.171 422.737 656.028Z" fill="#FFCEA9"/>
<path d="M426.214 676.928C426.214 676.928 431.543 675.721 433.986 673.351C433.986 673.351 430.811 663.367 428.785 660.853C426.76 658.339 424.792 674.471 424.792 674.471L426.214 676.928Z" fill="#EDEDED"/>
<path d="M418.068 655.926C418.93 657.018 419.031 658.383 415.669 659.23C413.224 659.928 410.611 659.73 408.3 658.67C405.647 659.787 403.099 661.138 400.686 662.707C397.813 672.144 400.14 673.351 398.933 680.117C399.393 683.521 399.968 692.299 400.111 694.295C406.518 698.777 419.548 697.254 422.478 692.5C422.523 690.911 422.672 689.328 422.924 687.759C425.984 676.411 428.383 673.394 427.521 664.775C427.032 659.877 426.659 657.42 424.059 656.156C422.08 655.818 420.066 655.741 418.068 655.926Z" fill="#F4F4F4"/>
<path d="M359.098 692.859C360.559 693.181 361.998 693.594 363.407 694.095C364.717 694.789 366.128 695.274 367.588 695.531C369.168 695.79 371.625 694.971 375.877 692.96C380.527 690.575 384.734 687.412 388.317 683.608C392.385 678.762 396.024 673.571 399.192 668.094C401.031 664.732 403.372 663.885 405.398 664.546C407.826 665.35 408.127 667.749 405.398 672.288C401.916 678.195 397.739 683.664 392.957 688.578C389.202 692.344 384.829 695.439 380.028 697.729C376.59 699.51 372.913 700.787 369.111 701.521C367.775 701.809 366.87 702.354 364.413 703.216C361.971 704.11 359.349 704.401 356.771 704.064C354.63 703.647 353.897 703.159 353.811 702.627C353.725 702.096 354.17 701.737 355.162 701.809C356.736 702.053 358.341 702.014 359.902 701.694C359.902 701.694 357.719 701.622 356.397 701.464C355.233 701.33 354.093 701.04 353.007 700.602C351.958 700.157 351.57 698.519 352.619 698.576C353.668 698.634 354.4 698.936 356.34 699.137C357.37 699.261 358.412 699.261 359.443 699.137C358.156 698.925 356.888 698.613 355.65 698.203C354.63 697.93 353.712 697.366 353.007 696.58C352.648 696.163 352.748 695.143 353.984 695.387C355.483 695.919 357.041 696.266 358.624 696.422C360.218 696.422 361.339 696.292 361.138 696.034C360.937 695.775 360.003 695.833 358.782 695.143C357.561 694.454 356.885 693.175 357.345 692.558C357.805 691.94 357.805 692.385 359.098 692.859Z" fill="#FFCEA9"/>
<path d="M402.827 677.732C399.113 677.189 395.678 675.449 393.044 672.777L398.963 664.56C398.963 664.56 402.295 660.351 406.691 662.735C406.691 662.735 410.024 663.095 406.691 670.033C405.556 672.673 404.266 675.244 402.827 677.732Z" fill="#EDEDED"/>
<path d="M399.681 632.282C399.921 630.871 400.703 629.61 401.859 628.767C403.016 627.925 404.456 627.567 405.872 627.771C407.938 626.376 410.437 625.775 412.911 626.076C418.528 626.651 422.206 630.299 423.915 635.93C424.742 638.744 425.295 641.63 425.567 644.549C427.263 657.061 431.802 667.002 427.55 670.708C423.298 674.414 411.662 676.785 406.806 674.414C401.95 672.044 410.814 650.511 401.175 638.502C398.919 635.701 398.704 633.704 399.681 632.282Z" fill="#4F4F51"/>
<path d="M5.5477 598.495C7.73185 600.265 10.9438 598.652 11.1009 598.809C13.6581 601.183 16.341 603.418 19.138 605.504C20.5655 606.575 22.6069 608.002 22.2215 610.043C21.5363 613.712 15.669 612.584 13.4563 611.471C11.2436 610.357 9.43064 608.487 7.33214 607.188C5.90459 606.261 4.36283 605.761 4.13442 603.891C3.92029 602.735 5.09088 598.452 5.5477 598.495Z" fill="#4F4F51"/>
<path d="M4.12006 603.12C4.40557 604.933 5.86167 605.432 7.34632 606.346C9.47338 607.674 11.3435 609.586 13.5562 610.7C15.7689 611.813 20.6939 612.77 22.1215 610.143C21.3506 613.683 15.569 612.57 13.3849 611.471C11.2007 610.372 9.35917 608.487 7.26067 607.188C5.83312 606.26 4.29136 605.761 4.06295 603.891C4.04695 603.632 4.06616 603.373 4.12006 603.12Z" fill="#878787"/>
<path d="M24.3771 591.471C26.547 593.241 30.3585 591.3 30.5298 591.471C32.7855 593.764 35.1685 595.928 37.6676 597.952C39.0238 599.023 41.1508 600.45 40.7654 602.492C40.0802 606.16 34.1986 605.033 31.9859 603.919C29.7732 602.806 27.9602 600.936 25.8617 599.637C24.4342 598.709 22.8924 598.209 22.664 596.339C22.5498 595.197 23.9916 591.428 24.3771 591.471Z" fill="#4F4F51"/>
<path d="M22.764 595.825C23.0495 597.638 24.5056 598.138 25.9902 599.065C28.1173 600.379 29.9874 602.292 32.2001 603.348C34.4128 604.404 39.3378 605.403 40.7654 602.791C39.9945 606.331 34.2129 605.218 32.0288 604.104C29.8446 602.991 28.0031 601.121 25.9046 599.822C24.4056 598.894 22.9353 598.394 22.7069 596.524C22.6979 596.29 22.7171 596.055 22.764 595.825Z" fill="#878787"/>
<path d="M5.34809 518.126C5.46229 521.424 6.49013 535.713 6.94695 543.279C7.40376 550.845 7.50369 560.123 7.50369 560.123C7.50369 560.123 6.20462 565.648 5.34809 572.129C4.49156 578.61 5.34809 599.066 5.34809 599.066C6.18208 599.597 7.15026 599.879 8.13895 599.879C9.12765 599.879 10.0958 599.597 10.9298 599.066C10.9298 599.066 14.413 582.692 16.0262 575.312C17.6393 567.932 17.9248 563.692 18.7528 559.11C19.7664 553.586 21.9505 527.776 21.9505 527.776H22.8356L25.1625 556.912C24.4578 559.064 23.9794 561.284 23.735 563.535C23.1068 568.274 24.4059 592.157 24.4059 592.157C25.3357 592.673 26.3895 592.923 27.4521 592.88C28.5146 592.837 29.5449 592.503 30.4302 591.914C30.4302 591.914 36.2546 560.28 36.2546 555.47C36.2546 552.286 35.6978 510.318 35.6978 510.318L5.34809 518.126Z" fill="#6C6C6C"/>
<path d="M13.2423 454.488C13.2423 454.488 13.6134 461.626 13.4564 462.297C13.2994 462.968 10.1588 465.037 9.24514 465.794C8.3315 466.551 14.213 472.346 17.0681 473.66C19.9232 474.973 28.9739 471.518 29.1452 467.065C29.3165 462.611 27.5892 458.885 26.2045 458.685C24.8197 458.485 13.2423 454.488 13.2423 454.488Z" fill="#FFCEA9"/>
<path d="M32.9141 467.807C33.3281 464.638 31.2439 461.64 33.271 459.114C40.4088 466.066 39.4523 484.437 41.0655 496.229C46.3189 501.739 56.897 507.149 59.8663 508.491C60.4088 508.748 60.8799 509.005 60.78 509.59C60.3863 511.532 59.5619 513.362 58.3674 514.943C51.3724 511.917 46.3331 510.19 37.5822 501.882C36.7578 501 36.017 500.045 35.3695 499.027C32.8142 491.475 32.1861 473.274 32.9141 467.807Z" fill="#FFCEA9"/>
<path d="M12.443 463.538C12.443 463.538 17.6536 471.304 24.9198 472.032C27.2182 469.776 27.418 461.74 24.2489 459.184C24.2489 459.184 27.104 456.829 29.1596 457.286C31.2986 458.581 32.8923 460.611 33.6422 462.996C35.4882 468.336 36.3586 473.964 36.2118 479.612C36.0833 487.235 36.2118 510.503 36.2118 510.503C36.2118 510.503 35.1839 515.428 28.6172 519.068C22.0504 522.708 17.1968 523.094 12.7 522.051C9.01688 521.195 5.97619 519.896 4.70567 517.227C5.03401 511.888 7.41802 497.955 6.53294 491.246C5.64786 484.537 4.22031 479.526 3.84914 474.116C3.47798 468.706 4.56292 468.806 7.28954 466.864C8.92837 465.638 10.6503 464.526 12.443 463.538Z" fill="#F4F4F4"/>
<path d="M29.4877 443.782C28.6312 438.215 24.6198 433.99 18.881 434.304C16.5665 434.42 14.3472 435.261 12.537 436.708C10.7267 438.155 9.41727 440.134 8.79378 442.366C8.17028 444.598 8.26434 446.969 9.06263 449.145C9.86092 451.32 11.323 453.19 13.2422 454.489C13.4448 455.335 13.7467 456.154 14.1415 456.93C16.1686 459.299 22.3214 460.77 24.1344 460.513C25.1848 460.42 26.1832 460.013 27.0001 459.347C27.8171 458.68 28.4152 457.783 28.7168 456.773C30.5584 452.39 29.9588 446.537 29.4877 443.782Z" fill="#FFCEA9"/>
<path d="M13.2424 454.488L13.7706 449.62C13.7706 449.62 9.83059 439.4 19.1811 441.312C25.3766 442.626 26.9327 443.182 28.817 439.028C30.7014 434.874 24.0633 431.134 16.1689 432.176C13.4487 432.459 10.9338 433.753 9.12261 435.802C7.31144 437.851 6.33621 440.505 6.39019 443.24C6.60432 446.294 7.41803 452.49 13.2424 454.488Z" fill="#4F4F51"/>
<path d="M2.25006 470.905C4.97669 470.134 2.90674 470.776 4.97669 470.134C12.1145 477.072 11.1723 488.991 12.7854 500.754C16.6969 507.22 31.2436 515.985 31.2436 515.985C31.4292 517.227 30.9867 517.598 29.4164 520.139C21.3333 517.034 13.9798 512.29 7.81752 506.207C7.47491 505.879 6.97526 505.793 6.83251 505.35C4.30574 497.842 1.53629 476.372 2.25006 470.905Z" fill="#FFCEA9"/>
<path d="M66.8611 485.408L56.2972 521.481L33.1566 530.731L41.5934 495.586L66.8611 485.408Z" fill="#F4F4F4"/>
<path d="M27.5607 516.242C27.9033 515.014 28.8027 515.314 29.802 515.628C30.8902 516.061 32.0813 516.165 33.2281 515.928C34.1214 515.49 34.9481 514.928 35.6835 514.258C36.1505 513.981 36.6825 513.834 37.2252 513.83C37.2252 514.129 36.697 515.971 36.697 515.971C36.697 515.971 41.7649 515.971 42.293 515.971C42.4719 515.933 42.6582 515.953 42.8247 516.028C42.9913 516.104 43.1293 516.231 43.2187 516.39C43.308 516.55 43.344 516.733 43.3212 516.915C43.2985 517.096 43.2184 517.266 43.0925 517.398H43.4351C44.4772 517.156 44.8626 518.754 43.8776 518.997L43.0211 519.126C43.7063 519.383 43.8776 520.553 43.0211 520.667H42.7499C42.6277 520.695 42.5009 520.695 42.3787 520.667H42.2217C42.2463 520.788 42.246 520.913 42.221 521.035C42.1959 521.156 42.1465 521.27 42.0757 521.372C42.005 521.473 41.9144 521.559 41.8094 521.625C41.7045 521.69 41.5873 521.733 41.4651 521.752C38.9811 522.066 35.3409 523.051 33.0996 521.01C31.5432 520.861 30.023 520.451 28.6028 519.797C27.1895 519.097 27.1467 517.712 27.5607 516.242Z" fill="#FFCEA9"/>
<path d="M52.8998 513.287H53.2424C53.0945 513.183 52.9835 513.034 52.9254 512.863C52.8673 512.691 52.865 512.506 52.919 512.333C52.9729 512.16 53.0802 512.009 53.2255 511.9C53.3709 511.792 53.5467 511.733 53.7278 511.731C54.256 511.731 59.438 510.646 59.438 510.646L60.0661 508.505C60.0661 508.377 60.9655 508.933 60.994 508.948C61.4473 509.229 61.8315 509.608 62.1181 510.058C62.4048 510.508 62.5865 511.016 62.65 511.546C62.7166 513.027 62.2046 514.475 61.2224 515.586C60.2802 516.527 59.0138 517.074 57.6821 517.113L55.8834 517.227C55.7606 517.237 55.6371 517.221 55.5206 517.182C55.4041 517.142 55.297 517.078 55.206 516.995C55.115 516.912 55.042 516.812 54.9915 516.699C54.941 516.587 54.9142 516.465 54.9126 516.342H54.6557C54.5334 516.369 54.4068 516.369 54.2845 516.342H54.0847C53.1996 516.342 53.1282 515.229 53.7278 514.829C53.4423 514.829 53.1568 514.829 52.8712 514.829C51.7435 514.943 51.8291 513.287 52.8998 513.287Z" fill="#FFCEA9"/>
<path d="M35.8549 472.517C37.2886 472.451 38.6424 471.838 39.6379 470.804C39.438 468.135 36.0262 457.957 29.1597 457.257C31.0271 458.568 32.5066 460.358 33.4423 462.439C34.5037 465.732 35.3102 469.101 35.8549 472.517Z" fill="#EDEDED"/>
<path d="M1.02248 485.894C1.02248 485.894 7.84618 488.249 12.657 484.295C13.1852 483.381 9.80192 471.761 9.80192 471.761C9.80192 471.761 6.94682 465.809 2.45003 468.178C-2.04676 470.548 1.02248 485.894 1.02248 485.894Z" fill="#EDEDED"/>
<path d="M241.948 743.919V664.047L119.847 650.307V730.678C119.76 733.176 121.171 735.474 124.194 737.223L181.403 770.251C187.886 773.998 199.228 773.524 206.711 769.202L235.753 752.438C239.975 749.94 242.073 746.867 241.998 743.919H241.948Z" fill="#D6D8E5"/>
<path d="M241.923 672.767V664.023H232.53L180.367 633.918C173.884 630.17 162.554 630.645 155.059 634.967L126.018 651.731C125.501 652.029 125.001 652.355 124.519 652.705L119.847 650.307C119.847 650.307 119.847 659.513 119.847 659.825C119.784 662.324 121.196 664.61 124.206 666.346L181.416 699.374C187.899 703.121 199.241 702.659 206.723 698.324L235.765 681.561C240.112 679.062 242.198 675.802 241.923 672.817V672.767Z" fill="#EDF0F9"/>
<path d="M181.404 689.855L124.194 656.827C117.711 653.08 118.523 646.547 126.018 642.212L155.06 625.449C162.554 621.126 173.884 620.652 180.367 624.399L237.576 657.427C244.059 661.174 243.247 667.72 235.753 672.042L206.711 688.831C199.228 693.165 187.887 693.603 181.404 689.855Z" fill="#D6D8E5"/>
<path d="M210.795 659.876C210.802 660.384 210.671 660.885 210.416 661.325C210.161 661.765 209.791 662.128 209.346 662.374L182.99 677.589C182.562 677.834 182.077 677.963 181.584 677.963C181.091 677.963 180.607 677.834 180.179 677.589L143.305 656.216C142.876 655.97 142.519 655.616 142.271 655.188C142.023 654.76 141.893 654.274 141.894 653.78V653.63L210.795 659.876Z" fill="#E5E5E5"/>
<path d="M209.346 662.374L182.99 677.589C182.564 677.834 182.082 677.963 181.591 677.963V659.875H210.795C210.802 660.384 210.671 660.885 210.416 661.325C210.161 661.765 209.791 662.127 209.346 662.374Z" fill="#E5E5E5"/>
<path d="M182.627 676.115C182.323 676.294 181.975 676.388 181.622 676.388C181.268 676.388 180.921 676.294 180.616 676.115L142.269 653.992C142.16 653.958 142.065 653.89 141.997 653.798C141.93 653.705 141.893 653.594 141.893 653.48C141.893 653.366 141.93 653.255 141.997 653.163C142.065 653.071 142.16 653.002 142.269 652.968L170.536 636.641L210.795 659.876L182.627 676.115Z" fill="#F4F4F4"/>
<path d="M158.032 659.889L158.232 660.001L170.536 667.109L177.281 663.212L177.469 663.099L164.977 655.879L158.032 659.889Z" fill="#BFBFBF"/>
<path d="M158.232 660.001L170.536 667.109L177.281 663.212L164.977 656.104L158.232 660.001Z" fill="#E5E5E5"/>
<path d="M200.115 661.287L201.852 662.374C201.938 662.42 202.035 662.444 202.133 662.444C202.231 662.444 202.327 662.42 202.414 662.374L204.1 661.4C204.275 661.3 204.287 661.162 204.1 661.075L202.326 660.05C202.24 660.005 202.143 659.98 202.045 659.98C201.947 659.98 201.851 660.005 201.764 660.05L200.078 661.025C199.99 661.125 199.978 661.2 200.115 661.287Z" fill="#2B303F"/>
<path d="M197.604 659.876L199.378 660.9C199.467 660.946 199.565 660.97 199.665 660.97C199.765 660.97 199.864 660.946 199.953 660.9L201.639 659.926C201.814 659.826 201.826 659.676 201.639 659.601L199.865 658.577C199.779 658.531 199.682 658.507 199.584 658.507C199.486 658.507 199.39 658.531 199.303 658.577L197.617 659.551C197.48 659.613 197.467 659.751 197.604 659.876Z" fill="#2B303F"/>
<path d="M195.094 658.389L196.867 659.414C196.956 659.46 197.055 659.484 197.155 659.484C197.255 659.484 197.353 659.46 197.442 659.414L199.128 658.439C199.291 658.339 199.316 658.189 199.128 658.114L197.355 657.09C197.268 657.044 197.172 657.02 197.074 657.02C196.976 657.02 196.879 657.044 196.792 657.09L195.106 658.064C194.969 658.164 194.956 658.302 195.094 658.389Z" fill="#2B303F"/>
<path d="M192.583 656.94L194.357 657.965C194.445 658.011 194.544 658.035 194.644 658.035C194.744 658.035 194.843 658.011 194.931 657.965L196.618 656.99C196.78 656.89 196.805 656.741 196.618 656.666L194.844 655.641C194.757 655.595 194.661 655.571 194.563 655.571C194.465 655.571 194.368 655.595 194.282 655.641L192.595 656.616C192.458 656.703 192.446 656.853 192.583 656.94Z" fill="#2B303F"/>
<path d="M190.072 655.491L191.846 656.515C191.933 656.558 192.029 656.581 192.127 656.581C192.224 656.581 192.321 656.558 192.408 656.515L194.107 655.541C194.269 655.441 194.294 655.291 194.107 655.216L192.333 654.192C192.246 654.149 192.149 654.127 192.052 654.127C191.955 654.127 191.858 654.149 191.771 654.192L190.072 655.179C189.947 655.254 189.935 655.404 190.072 655.491Z" fill="#2B303F"/>
<path d="M187.561 654.042L189.335 655.066C189.423 655.109 189.519 655.132 189.616 655.132C189.714 655.132 189.81 655.109 189.897 655.066L191.596 654.092C191.758 653.992 191.783 653.842 191.596 653.755L189.822 652.73C189.734 652.691 189.638 652.67 189.541 652.67C189.444 652.67 189.349 652.691 189.26 652.73L187.561 653.717C187.436 653.805 187.424 653.954 187.561 654.042Z" fill="#2B303F"/>
<path d="M185.051 652.593L186.862 653.63C186.951 653.669 187.046 653.69 187.143 653.69C187.24 653.69 187.336 653.669 187.424 653.63L189.123 652.643C189.285 652.556 189.31 652.406 189.123 652.318L187.349 651.294C187.261 651.254 187.165 651.234 187.068 651.234C186.971 651.234 186.876 651.254 186.787 651.294L185.088 652.268C184.926 652.381 184.901 652.506 185.051 652.593Z" fill="#2B303F"/>
<path d="M182.54 651.132L184.314 652.156C184.402 652.196 184.498 652.216 184.595 652.216C184.692 652.216 184.788 652.196 184.876 652.156L186.575 651.169C186.737 651.082 186.762 650.932 186.575 650.845L184.801 649.82C184.714 649.777 184.617 649.755 184.52 649.755C184.423 649.755 184.326 649.777 184.239 649.82L182.54 650.795C182.415 650.907 182.39 651.057 182.54 651.132Z" fill="#2B303F"/>
<path d="M180.029 649.683L181.803 650.707C181.891 650.75 181.987 650.773 182.084 650.773C182.182 650.773 182.278 650.75 182.365 650.707L184.064 649.72C184.226 649.633 184.251 649.483 184.064 649.396L182.29 648.371C182.203 648.328 182.107 648.306 182.009 648.306C181.912 648.306 181.816 648.328 181.728 648.371L180.029 649.346C179.904 649.458 179.88 649.608 180.029 649.683Z" fill="#2B303F"/>
<path d="M177.519 648.234L179.292 649.258C179.379 649.304 179.475 649.328 179.573 649.328C179.671 649.328 179.768 649.304 179.855 649.258L181.553 648.284C181.716 648.184 181.728 648.046 181.553 647.959L179.78 646.935C179.693 646.889 179.597 646.865 179.499 646.865C179.401 646.865 179.304 646.889 179.217 646.935L177.519 647.909C177.394 648.009 177.369 648.159 177.519 648.234Z" fill="#2B303F"/>
<path d="M175.008 646.785L176.782 647.809C176.868 647.855 176.965 647.879 177.063 647.879C177.161 647.879 177.257 647.855 177.344 647.809L179.043 646.835C179.205 646.735 179.217 646.597 179.043 646.51L177.269 645.486C177.182 645.44 177.086 645.416 176.988 645.416C176.89 645.416 176.793 645.44 176.707 645.486L175.008 646.46C174.883 646.56 174.858 646.71 175.008 646.785Z" fill="#2B303F"/>
<path d="M172.497 645.335L174.271 646.36C174.357 646.405 174.454 646.429 174.552 646.429C174.65 646.429 174.746 646.405 174.833 646.36L176.519 645.385C176.694 645.285 176.707 645.148 176.519 645.06L174.746 644.036C174.657 643.99 174.558 643.966 174.458 643.966C174.358 643.966 174.26 643.99 174.171 644.036L172.485 645.01C172.372 645.11 172.347 645.248 172.497 645.335Z" fill="#2B303F"/>
<path d="M169.986 643.886L171.76 644.911C171.847 644.957 171.943 644.981 172.041 644.981C172.139 644.981 172.236 644.957 172.322 644.911L174.009 643.936C174.183 643.836 174.196 643.699 174.009 643.612L172.235 642.587C172.146 642.541 172.047 642.517 171.947 642.517C171.847 642.517 171.749 642.541 171.66 642.587L169.974 643.562C169.861 643.636 169.836 643.799 169.986 643.886Z" fill="#2B303F"/>
<path d="M166.264 641.738L169.25 643.462C169.336 643.508 169.433 643.532 169.531 643.532C169.629 643.532 169.725 643.508 169.812 643.462L171.498 642.487C171.673 642.388 171.685 642.238 171.498 642.163L168.513 640.439C168.426 640.393 168.329 640.369 168.231 640.369C168.133 640.369 168.037 640.393 167.95 640.439L166.252 641.413C166.139 641.513 166.114 641.651 166.264 641.738Z" fill="#2B303F"/>
<path d="M193.957 660.538L195.731 661.562C195.82 661.605 195.919 661.628 196.018 661.628C196.118 661.628 196.216 661.605 196.305 661.562L197.992 660.575C198.154 660.488 198.179 660.338 197.992 660.251L196.218 659.226C196.13 659.183 196.034 659.161 195.937 659.161C195.839 659.161 195.743 659.183 195.656 659.226L193.97 660.201C193.832 660.313 193.82 660.463 193.957 660.538Z" fill="#2B303F"/>
<path d="M191.446 659.089L193.22 660.113C193.307 660.159 193.403 660.183 193.501 660.183C193.599 660.183 193.696 660.159 193.782 660.113L195.481 659.139C195.643 659.039 195.668 658.901 195.481 658.814L193.707 657.79C193.621 657.744 193.524 657.72 193.426 657.72C193.328 657.72 193.232 657.744 193.145 657.79L191.446 658.764C191.321 658.864 191.296 659.001 191.446 659.089Z" fill="#2B303F"/>
<path d="M188.923 657.64L190.709 658.664C190.796 658.71 190.892 658.734 190.99 658.734C191.088 658.734 191.185 658.71 191.271 658.664L192.958 657.69C193.133 657.59 193.145 657.44 192.958 657.365L191.172 656.341C191.085 656.295 190.989 656.271 190.891 656.271C190.793 656.271 190.696 656.295 190.609 656.341L188.923 657.315C188.798 657.378 188.786 657.552 188.923 657.64Z" fill="#2B303F"/>
<path d="M186.412 656.191L188.186 657.216C188.274 657.255 188.37 657.276 188.467 657.276C188.564 657.276 188.66 657.255 188.748 657.216L190.447 656.229C190.609 656.141 190.634 655.991 190.447 655.904L188.711 654.88C188.623 654.837 188.527 654.814 188.43 654.814C188.332 654.814 188.236 654.837 188.149 654.88L186.45 655.854C186.287 655.954 186.262 656.129 186.412 656.191Z" fill="#2B303F"/>
<path d="M183.914 654.742L185.688 655.766C185.777 655.812 185.875 655.836 185.975 655.836C186.075 655.836 186.174 655.812 186.263 655.766L187.949 654.792C188.111 654.692 188.136 654.555 187.949 654.467L186.175 653.443C186.089 653.397 185.992 653.373 185.894 653.373C185.796 653.373 185.7 653.397 185.613 653.443L183.927 654.417C183.789 654.517 183.777 654.667 183.914 654.742Z" fill="#2B303F"/>
<path d="M181.403 653.293L183.177 654.317C183.264 654.363 183.36 654.387 183.458 654.387C183.556 654.387 183.653 654.363 183.739 654.317L185.438 653.343C185.6 653.243 185.613 653.093 185.438 653.018L183.664 651.994C183.578 651.948 183.481 651.924 183.383 651.924C183.285 651.924 183.189 651.948 183.102 651.994L181.403 652.968C181.278 653.068 181.253 653.206 181.403 653.293Z" fill="#2B303F"/>
<path d="M178.88 651.844L180.654 652.868C180.744 652.908 180.842 652.928 180.941 652.928C181.04 652.928 181.138 652.908 181.229 652.868L182.915 651.893C183.09 651.794 183.102 651.644 182.915 651.556L181.141 650.532C181.053 650.492 180.957 650.472 180.86 650.472C180.763 650.472 180.667 650.492 180.579 650.532L178.893 651.519C178.755 651.606 178.743 651.756 178.88 651.844Z" fill="#2B303F"/>
<path d="M176.369 650.382L178.143 651.406C178.23 651.452 178.326 651.476 178.424 651.476C178.522 651.476 178.619 651.452 178.705 651.406L180.404 650.432C180.567 650.345 180.591 650.195 180.404 650.107L178.63 649.083C178.544 649.037 178.447 649.013 178.349 649.013C178.251 649.013 178.155 649.037 178.068 649.083L176.369 650.057C176.245 650.157 176.22 650.307 176.369 650.382Z" fill="#2B303F"/>
<path d="M173.859 648.933L175.632 649.958C175.719 650.003 175.816 650.027 175.914 650.027C176.012 650.027 176.108 650.003 176.195 649.958L177.881 648.983C178.056 648.883 178.068 648.746 177.881 648.658L176.107 647.634C176.018 647.588 175.92 647.564 175.82 647.564C175.72 647.564 175.621 647.588 175.533 647.634L173.846 648.608C173.721 648.708 173.709 648.846 173.859 648.933Z" fill="#2B303F"/>
<path d="M171.335 647.484L173.109 648.508C173.197 648.551 173.293 648.573 173.39 648.573C173.488 648.573 173.584 648.551 173.671 648.508L175.37 647.534C175.532 647.434 175.557 647.284 175.37 647.209L173.634 646.135C173.546 646.092 173.45 646.069 173.353 646.069C173.255 646.069 173.159 646.092 173.072 646.135L171.373 647.122C171.211 647.246 171.198 647.384 171.335 647.484Z" fill="#2B303F"/>
<path d="M168.825 646.022L170.598 647.047C170.686 647.09 170.782 647.112 170.88 647.112C170.977 647.112 171.073 647.09 171.161 647.047L172.859 646.06C173.022 645.973 173.034 645.823 172.859 645.735L171.086 644.711C170.998 644.668 170.902 644.646 170.805 644.646C170.707 644.646 170.611 644.668 170.524 644.711L168.825 645.685C168.7 645.798 168.675 645.948 168.825 646.022Z" fill="#2B303F"/>
<path d="M166.301 644.574L168.075 645.598C168.164 645.644 168.263 645.668 168.363 645.668C168.463 645.668 168.561 645.644 168.65 645.598L170.336 644.624C170.511 644.524 170.523 644.387 170.336 644.299L168.562 643.275C168.476 643.229 168.379 643.205 168.281 643.205C168.183 643.205 168.087 643.229 168 643.275L166.314 644.249C166.177 644.349 166.164 644.499 166.301 644.574Z" fill="#2B303F"/>
<path d="M196.48 661.999L199.466 663.723C199.554 663.763 199.65 663.783 199.747 663.783C199.844 663.783 199.939 663.763 200.028 663.723L201.714 662.749C201.889 662.649 201.901 662.499 201.714 662.411L198.729 660.688C198.64 660.648 198.544 660.627 198.448 660.627C198.351 660.627 198.255 660.648 198.167 660.688L196.468 661.674C196.355 661.762 196.33 661.912 196.48 661.999Z" fill="#2B303F"/>
<path d="M166.102 641.813L167.876 642.837C168.013 642.912 168.013 643.049 167.876 643.137L166.077 644.174C165.995 644.213 165.905 644.234 165.815 644.234C165.724 644.234 165.634 644.213 165.552 644.174L165.415 644.086C165.339 644.05 165.256 644.031 165.171 644.031C165.087 644.031 165.004 644.05 164.928 644.086L163.041 645.185C162.961 645.228 162.871 645.25 162.779 645.25C162.688 645.25 162.598 645.228 162.517 645.185L161.38 644.536C161.351 644.521 161.327 644.499 161.31 644.471C161.293 644.444 161.284 644.412 161.284 644.38C161.284 644.347 161.293 644.316 161.31 644.288C161.327 644.26 161.351 644.238 161.38 644.224L163.154 643.212L163.516 642.999L163.778 642.837L164.053 642.687L165.577 641.813C165.658 641.77 165.748 641.748 165.84 641.748C165.931 641.748 166.021 641.77 166.102 641.813Z" fill="#2B303F"/>
<path d="M190.372 666.909L192.146 667.933C192.233 667.976 192.329 667.998 192.427 667.998C192.524 667.998 192.62 667.976 192.708 667.933L194.407 666.958C194.569 666.859 194.594 666.709 194.407 666.621L192.633 665.597C192.545 665.557 192.449 665.537 192.352 665.537C192.255 665.537 192.159 665.557 192.071 665.597L190.372 666.584C190.247 666.671 190.235 666.821 190.372 666.909Z" fill="#2B303F"/>
<path d="M187.874 665.459L189.648 666.484C189.734 666.53 189.831 666.554 189.929 666.554C190.027 666.554 190.123 666.53 190.21 666.484L191.896 665.509C192.071 665.41 192.083 665.26 191.896 665.185L190.122 664.16C190.033 664.114 189.935 664.09 189.835 664.09C189.735 664.09 189.636 664.114 189.548 664.16L187.861 665.135C187.736 665.235 187.724 665.372 187.874 665.459Z" fill="#2B303F"/>
<path d="M185.363 664.011L187.137 665.035C187.223 665.081 187.32 665.105 187.418 665.105C187.516 665.105 187.612 665.081 187.699 665.035L189.398 664.061C189.56 663.961 189.585 663.823 189.398 663.736L187.624 662.711C187.537 662.665 187.441 662.641 187.343 662.641C187.245 662.641 187.148 662.665 187.062 662.711L185.363 663.686C185.238 663.786 185.226 663.936 185.363 664.011Z" fill="#2B303F"/>
<path d="M164.041 651.694L165.815 652.719C165.902 652.762 165.998 652.784 166.096 652.784C166.193 652.784 166.289 652.762 166.377 652.719L168.063 651.732C168.238 651.644 168.25 651.494 168.063 651.407L166.289 650.383C166.2 650.337 166.102 650.313 166.002 650.313C165.902 650.313 165.803 650.337 165.715 650.383L164.028 651.357C163.916 651.469 163.891 651.619 164.041 651.694Z" fill="#2B303F"/>
<path d="M161.53 650.257L163.304 651.281C163.391 651.324 163.487 651.347 163.585 651.347C163.682 651.347 163.778 651.324 163.866 651.281L165.564 650.307C165.727 650.207 165.752 650.057 165.564 649.97L163.791 648.945C163.702 648.906 163.607 648.885 163.51 648.885C163.413 648.885 163.317 648.906 163.229 648.945L161.53 649.932C161.405 650.02 161.392 650.17 161.53 650.257Z" fill="#2B303F"/>
<path d="M159.032 648.808L160.806 649.833C160.892 649.878 160.989 649.902 161.087 649.902C161.185 649.902 161.281 649.878 161.368 649.833L163.054 648.858C163.229 648.758 163.241 648.608 163.054 648.533L161.28 647.509C161.191 647.463 161.093 647.439 160.993 647.439C160.893 647.439 160.794 647.463 160.706 647.509L159.019 648.483C158.907 648.633 158.882 648.721 159.032 648.808Z" fill="#2B303F"/>
<path d="M156.521 647.384L158.295 648.409C158.381 648.454 158.478 648.478 158.576 648.478C158.674 648.478 158.77 648.454 158.857 648.409L160.556 647.434C160.718 647.334 160.743 647.197 160.556 647.109L158.782 646.085C158.695 646.039 158.599 646.015 158.501 646.015C158.403 646.015 158.306 646.039 158.22 646.085L156.521 647.059C156.396 647.134 156.384 647.272 156.521 647.384Z" fill="#2B303F"/>
<path d="M182.215 662.199L184.638 663.623C184.726 663.666 184.822 663.689 184.92 663.689C185.017 663.689 185.113 663.666 185.201 663.623L186.887 662.636C187.062 662.549 187.074 662.399 186.887 662.312L184.464 660.913C184.375 660.873 184.279 660.852 184.183 660.852C184.086 660.852 183.99 660.873 183.901 660.913L182.203 661.899C182.09 661.962 182.065 662.112 182.215 662.199Z" fill="#2B303F"/>
<path d="M166.539 653.143L168.962 654.542C169.049 654.588 169.145 654.612 169.243 654.612C169.341 654.612 169.438 654.588 169.524 654.542L171.223 653.568C171.385 653.468 171.398 653.318 171.223 653.243L168.8 651.844C168.713 651.798 168.617 651.774 168.519 651.774C168.421 651.774 168.324 651.798 168.238 651.844L166.539 652.818C166.414 652.918 166.401 653.056 166.539 653.143Z" fill="#2B303F"/>
<path d="M169.687 654.967L181.491 661.775C181.577 661.82 181.674 661.844 181.772 661.844C181.87 661.844 181.966 661.82 182.053 661.775L183.739 660.8C183.914 660.7 183.927 660.55 183.739 660.475L171.985 653.63C171.898 653.587 171.802 653.565 171.704 653.565C171.607 653.565 171.51 653.587 171.423 653.63L169.737 654.617C169.562 654.729 169.549 654.879 169.687 654.967Z" fill="#2B303F"/>
<path d="M190.847 661.55L192.62 662.574C192.707 662.62 192.803 662.644 192.901 662.644C192.999 662.644 193.096 662.62 193.182 662.574L194.881 661.6C195.044 661.512 195.056 661.362 194.881 661.275L193.108 660.225C193.021 660.18 192.924 660.156 192.827 660.156C192.729 660.156 192.632 660.18 192.545 660.225L190.847 661.2C190.722 661.325 190.697 661.475 190.847 661.55Z" fill="#2B303F"/>
<path d="M188.336 660.101L190.11 661.125C190.197 661.168 190.293 661.19 190.391 661.19C190.488 661.19 190.584 661.168 190.672 661.125L192.37 660.138C192.533 660.051 192.558 659.901 192.37 659.813L190.609 658.777C190.523 658.731 190.426 658.707 190.328 658.707C190.23 658.707 190.134 658.731 190.047 658.777L188.348 659.751C188.211 659.876 188.186 660.026 188.336 660.101Z" fill="#2B303F"/>
<path d="M185.825 658.627L187.599 659.651C187.687 659.694 187.783 659.716 187.88 659.716C187.978 659.716 188.074 659.694 188.161 659.651L189.86 658.627C190.022 658.539 190.047 658.389 189.86 658.302L188.111 657.377C188.024 657.334 187.928 657.312 187.83 657.312C187.733 657.312 187.637 657.334 187.549 657.377L185.85 658.352C185.7 658.427 185.675 658.627 185.825 658.627Z" fill="#2B303F"/>
<path d="M183.314 657.202L185.088 658.227C185.176 658.27 185.272 658.292 185.369 658.292C185.467 658.292 185.563 658.27 185.65 658.227L187.349 657.24C187.511 657.153 187.536 657.003 187.349 656.915L185.613 655.878C185.525 655.835 185.429 655.813 185.332 655.813C185.234 655.813 185.138 655.835 185.051 655.878L183.352 656.853C183.189 656.978 183.177 657.127 183.314 657.202Z" fill="#2B303F"/>
<path d="M180.804 655.766L182.577 656.79C182.668 656.83 182.766 656.851 182.865 656.851C182.964 656.851 183.062 656.83 183.152 656.79L184.838 655.804C185.013 655.716 185.026 655.566 184.838 655.479L183.115 654.43C183.027 654.387 182.931 654.364 182.834 654.364C182.736 654.364 182.64 654.387 182.552 654.43L180.866 655.404C180.679 655.529 180.616 655.679 180.804 655.766Z" fill="#2B303F"/>
<path d="M178.306 654.317L180.079 655.342C180.168 655.381 180.263 655.402 180.36 655.402C180.457 655.402 180.553 655.381 180.641 655.342L182.328 654.355C182.503 654.267 182.515 654.118 182.328 654.03L180.616 652.981C180.526 652.941 180.428 652.92 180.329 652.92C180.23 652.92 180.132 652.941 180.042 652.981L178.355 653.955C178.118 654.08 178.118 654.23 178.306 654.317Z" fill="#2B303F"/>
<path d="M175.795 652.869L177.569 653.893C177.657 653.932 177.753 653.953 177.85 653.953C177.946 653.953 178.042 653.932 178.131 653.893L179.817 652.919C179.992 652.819 180.004 652.669 179.817 652.581L178.118 651.532C178.028 651.492 177.93 651.471 177.831 651.471C177.732 651.471 177.634 651.492 177.544 651.532L175.857 652.519C175.62 652.631 175.62 652.781 175.795 652.869Z" fill="#2B303F"/>
<path d="M173.284 651.419L175.058 652.443C175.145 652.486 175.241 652.509 175.339 652.509C175.436 652.509 175.532 652.486 175.62 652.443L177.319 651.469C177.481 651.369 177.494 651.219 177.319 651.132L175.62 650.083C175.531 650.043 175.436 650.022 175.339 650.022C175.242 650.022 175.146 650.043 175.058 650.083L173.359 651.069C173.122 651.132 173.122 651.332 173.284 651.419Z" fill="#2B303F"/>
<path d="M170.773 649.97L172.547 650.995C172.635 651.038 172.731 651.06 172.828 651.06C172.926 651.06 173.022 651.038 173.109 650.995L174.808 650.02C174.971 649.92 174.995 649.77 174.808 649.683L173.122 648.634C173.033 648.594 172.938 648.574 172.841 648.574C172.744 648.574 172.648 648.594 172.56 648.634L170.861 649.621C170.624 649.733 170.624 649.883 170.773 649.97Z" fill="#2B303F"/>
<path d="M168.263 648.521L170.036 649.545C170.124 649.588 170.22 649.611 170.317 649.611C170.415 649.611 170.511 649.588 170.599 649.545L172.297 648.571C172.46 648.471 172.485 648.321 172.297 648.246L170.624 647.197C170.536 647.154 170.44 647.131 170.342 647.131C170.245 647.131 170.149 647.154 170.061 647.197L168.363 648.184C168.125 648.284 168.125 648.433 168.263 648.521Z" fill="#2B303F"/>
<path d="M165.752 647.072L167.526 648.096C167.615 648.139 167.713 648.162 167.813 648.162C167.912 648.162 168.011 648.139 168.1 648.096L169.786 647.122C169.949 647.022 169.974 646.872 169.786 646.797L168.013 645.773C167.925 645.73 167.829 645.708 167.732 645.708C167.634 645.708 167.538 645.73 167.451 645.773L165.764 646.76C165.627 646.835 165.627 646.985 165.752 647.072Z" fill="#2B303F"/>
<path d="M163.241 645.623L165.015 646.647C165.104 646.693 165.202 646.717 165.302 646.717C165.402 646.717 165.501 646.693 165.589 646.647L167.276 645.673C167.451 645.573 167.463 645.423 167.276 645.348L165.502 644.324C165.415 644.281 165.318 644.259 165.221 644.259C165.124 644.259 165.027 644.281 164.94 644.324L163.254 645.311C163.129 645.386 163.129 645.536 163.241 645.623Z" fill="#2B303F"/>
<path d="M193.357 662.998L197.017 665.122C197.106 665.168 197.205 665.192 197.305 665.192C197.405 665.192 197.503 665.168 197.592 665.122L199.278 664.148C199.441 664.048 199.466 663.898 199.278 663.823L195.606 661.674C195.517 661.628 195.418 661.604 195.318 661.604C195.219 661.604 195.12 661.628 195.031 661.674L193.345 662.649C193.22 662.774 193.207 662.924 193.357 662.998Z" fill="#2B303F"/>
<path d="M189.66 663.624L191.434 664.648C191.521 664.691 191.617 664.713 191.715 664.713C191.812 664.713 191.908 664.691 191.996 664.648L193.682 663.661C193.857 663.574 193.87 663.424 193.682 663.336L191.958 662.374C191.869 662.331 191.771 662.309 191.671 662.309C191.572 662.309 191.473 662.331 191.384 662.374L189.698 663.349C189.523 663.449 189.51 663.624 189.66 663.624Z" fill="#2B303F"/>
<path d="M187.149 662.237L188.923 663.261C189.011 663.301 189.107 663.321 189.204 663.321C189.301 663.321 189.397 663.301 189.485 663.261L191.184 662.274C191.346 662.187 191.359 662.037 191.184 661.95L189.41 660.925C189.323 660.882 189.227 660.86 189.129 660.86C189.032 660.86 188.935 660.882 188.848 660.925L187.149 661.9C187.024 662 186.999 662.15 187.149 662.237Z" fill="#2B303F"/>
<path d="M184.639 660.787L186.412 661.812C186.501 661.851 186.597 661.872 186.693 661.872C186.79 661.872 186.886 661.851 186.975 661.812L188.673 660.825C188.836 660.737 188.861 660.587 188.673 660.5L186.9 659.476C186.812 659.433 186.716 659.41 186.619 659.41C186.521 659.41 186.425 659.433 186.337 659.476L184.639 660.45C184.514 660.55 184.489 660.7 184.639 660.787Z" fill="#2B303F"/>
<path d="M182.128 659.339L183.902 660.363C183.99 660.403 184.086 660.423 184.183 660.423C184.28 660.423 184.375 660.403 184.464 660.363L186.163 659.389C186.325 659.289 186.35 659.139 186.163 659.052L184.389 658.027C184.3 657.988 184.205 657.967 184.108 657.967C184.011 657.967 183.915 657.988 183.827 658.027L182.128 659.014C182.003 659.102 181.99 659.251 182.128 659.339Z" fill="#2B303F"/>
<path d="M179.617 657.89L181.391 658.914C181.48 658.958 181.579 658.98 181.678 658.98C181.778 658.98 181.876 658.958 181.965 658.914L183.652 657.94C183.814 657.84 183.839 657.69 183.652 657.603L181.866 656.553C181.777 656.514 181.681 656.493 181.584 656.493C181.488 656.493 181.392 656.514 181.303 656.553L179.617 657.54C179.492 657.653 179.48 657.803 179.617 657.89Z" fill="#2B303F"/>
<path d="M177.106 656.441L178.893 657.465C178.98 657.508 179.076 657.53 179.174 657.53C179.271 657.53 179.367 657.508 179.455 657.465L181.141 656.491C181.316 656.391 181.328 656.241 181.141 656.166L179.367 655.116C179.28 655.073 179.184 655.051 179.086 655.051C178.989 655.051 178.893 655.073 178.805 655.116L177.119 656.103C176.982 656.203 176.969 656.353 177.106 656.441Z" fill="#2B303F"/>
<path d="M174.608 654.992L176.382 656.016C176.468 656.062 176.565 656.086 176.663 656.086C176.761 656.086 176.857 656.062 176.944 656.016L178.63 655.042C178.805 654.942 178.818 654.792 178.63 654.717L176.869 653.63C176.779 653.587 176.681 653.565 176.582 653.565C176.482 653.565 176.384 653.587 176.294 653.63L174.608 654.617C174.483 654.755 174.458 654.879 174.608 654.992Z" fill="#2B303F"/>
<path d="M172.097 653.542L173.871 654.567C173.958 654.613 174.054 654.637 174.152 654.637C174.25 654.637 174.347 654.613 174.433 654.567L176.132 653.592C176.294 653.492 176.307 653.343 176.132 653.268L174.371 652.218C174.284 652.172 174.188 652.148 174.09 652.148C173.992 652.148 173.895 652.172 173.809 652.218L172.11 653.193C171.972 653.318 171.947 653.455 172.097 653.542Z" fill="#2B303F"/>
<path d="M169.587 652.094L171.36 653.118C171.447 653.164 171.543 653.188 171.641 653.188C171.739 653.188 171.836 653.164 171.922 653.118L173.621 652.143C173.784 652.044 173.809 651.894 173.621 651.819L171.873 650.769C171.786 650.723 171.689 650.699 171.591 650.699C171.493 650.699 171.397 650.723 171.31 650.769L169.612 651.744C169.462 651.869 169.437 652.006 169.587 652.094Z" fill="#2B303F"/>
<path d="M167.076 650.645L168.85 651.669C168.936 651.715 169.033 651.739 169.131 651.739C169.229 651.739 169.325 651.715 169.412 651.669L171.111 650.695C171.273 650.595 171.298 650.445 171.111 650.37L169.374 649.321C169.288 649.275 169.191 649.251 169.093 649.251C168.995 649.251 168.899 649.275 168.812 649.321L167.126 650.295C166.951 650.42 166.939 650.557 167.076 650.645Z" fill="#2B303F"/>
<path d="M164.565 649.196L166.339 650.22C166.428 650.266 166.526 650.29 166.626 650.29C166.726 650.29 166.825 650.266 166.914 650.22L168.6 649.246C168.775 649.146 168.787 649.008 168.6 648.921L166.876 647.872C166.79 647.826 166.693 647.802 166.595 647.802C166.497 647.802 166.401 647.826 166.314 647.872L164.628 648.846C164.44 648.971 164.378 649.108 164.565 649.196Z" fill="#2B303F"/>
<path d="M158.957 645.96L163.841 648.771C163.927 648.817 164.024 648.841 164.122 648.841C164.22 648.841 164.316 648.817 164.403 648.771L166.089 647.797C166.264 647.697 166.277 647.559 166.089 647.472L161.205 644.649C161.117 644.609 161.021 644.589 160.924 644.589C160.827 644.589 160.731 644.609 160.643 644.649L158.944 645.636C158.832 645.723 158.807 645.873 158.957 645.96Z" fill="#2B303F"/>
<path d="M192.158 665.122L194.581 666.521C194.668 666.567 194.765 666.591 194.863 666.591C194.961 666.591 195.057 666.567 195.144 666.521L196.842 665.546C197.005 665.447 197.03 665.309 196.842 665.222L194.419 663.823C194.333 663.777 194.236 663.753 194.138 663.753C194.04 663.753 193.944 663.777 193.857 663.823L192.171 664.797C192.033 664.872 192.021 665.047 192.158 665.122Z" fill="#2B303F"/>
<path d="M210.795 659.876L170.536 636.642V604.976L170.848 604.276L171.173 604.101C171.598 603.862 172.078 603.736 172.566 603.736C173.054 603.736 173.534 603.862 173.959 604.101L210.795 625.337C211.218 625.581 211.569 625.933 211.812 626.356C212.056 626.779 212.183 627.259 212.182 627.748V657.453C211.932 659.027 211.657 659.389 210.795 659.876Z" fill="#E5E5E5"/>
<path d="M207.098 629.209L170.536 606.037V604.976L170.848 604.276L171.173 604.101C171.598 603.862 172.078 603.736 172.566 603.736C173.054 603.736 173.534 603.862 173.959 604.101L210.795 625.337C211.244 625.598 211.611 625.979 211.857 626.436L207.098 629.209Z" fill="#E5E5E5"/>
<path d="M171.46 604.264L210.183 626.586C210.389 626.705 210.56 626.877 210.678 627.083C210.797 627.289 210.859 627.523 210.858 627.761V659.876L170.536 636.642V604.801C170.534 604.692 170.561 604.585 170.615 604.49C170.668 604.395 170.746 604.316 170.841 604.261C170.935 604.206 171.042 604.178 171.151 604.178C171.26 604.179 171.367 604.208 171.46 604.264Z" fill="#DCEEFF"/>
<path d="M171.46 604.264L210.183 626.586C210.389 626.705 210.56 626.877 210.678 627.083C210.797 627.289 210.859 627.523 210.858 627.761V659.876L170.536 636.642V604.801C170.534 604.692 170.561 604.585 170.615 604.49C170.668 604.395 170.746 604.316 170.841 604.261C170.935 604.206 171.042 604.178 171.151 604.178C171.26 604.179 171.367 604.208 171.46 604.264Z" fill="#F4F4F4"/>
<path d="M210.795 659.889V658.74L170.536 635.493V636.642L210.795 659.889Z" fill="#E5E5E5"/>
<path d="M172.073 606.213V634.719L209.496 656.267V627.823L172.073 606.213Z" fill="#343434"/>
<path d="M105.245 631.944C104.908 634.942 101.335 647.834 102.11 652.243C102.884 656.653 115.05 664.048 115.05 664.048L116.737 656.553L109.992 649.882L111.815 637.391L105.245 631.944Z" fill="#FFCEA9"/>
<path d="M114.676 619.24C113.49 618.692 112.145 618.598 110.895 618.975C109.645 619.353 108.577 620.176 107.893 621.289C106.094 624.262 104.233 634.442 104.071 636.141C104.071 636.141 106.569 639.614 110.316 639.039L114.676 619.24Z" fill="#EDEDED"/>
<path d="M128.578 763.006C131.23 763.735 134.062 763.39 136.46 762.044C138.359 762.044 148.676 757.697 150.075 761.394C151.325 764.642 146.84 767.64 144.454 768.227C139.246 769.476 135.398 772.087 133.3 772.524C131.738 772.849 129.727 773.061 128.491 771.837C126.992 770.376 127.129 764.942 128.578 763.006Z" fill="#D6D8E5"/>
<path d="M133.3 771.625C135.398 771.188 139.246 768.589 144.454 767.328C146.453 766.841 149.888 764.655 150.238 762.044C150.7 765.042 146.678 767.69 144.454 768.227C139.246 769.476 135.398 772.087 133.3 772.524C131.739 772.849 129.727 773.061 128.491 771.837C128.162 771.484 127.926 771.055 127.804 770.588C128.576 771.176 129.475 771.576 130.429 771.756C131.383 771.936 132.366 771.891 133.3 771.625Z" fill="white"/>
<path d="M111.915 755.499C114.567 756.226 117.398 755.88 119.797 754.537C121.696 754.599 132.001 750.19 133.4 753.887C134.649 757.135 130.165 760.133 127.779 760.72C122.583 761.969 118.723 764.58 116.637 765.017C115.075 765.342 113.064 765.554 111.815 764.33C110.279 762.869 110.404 757.435 111.915 755.499Z" fill="#D6D8E5"/>
<path d="M116.587 764.117C118.673 763.68 122.533 761.082 127.729 759.82C129.728 759.333 133.175 757.147 133.525 754.536C133.987 757.534 129.965 760.182 127.729 760.782C122.533 762.031 118.673 764.642 116.587 765.079C115.025 765.404 113.014 765.616 111.765 764.392C111.441 764.038 111.209 763.608 111.091 763.143C111.869 763.72 112.77 764.109 113.724 764.278C114.678 764.447 115.658 764.392 116.587 764.117Z" fill="white"/>
<path d="M111.665 727.493C112.105 723.679 112.899 719.916 114.039 716.25C114.039 716.25 113.327 706.507 112.977 697.263C112.565 686.782 108.93 677.564 111.803 669.194L144.142 676.39C144.142 676.39 142.194 718.174 141.756 723.233C141.516 727.173 141.032 731.095 140.308 734.975C138.834 743.082 136.435 762.382 136.435 762.382C133.013 764.368 128.516 763.268 128.516 763.268C128.516 763.268 128.766 738.86 128.991 733.014C129.253 725.881 129.478 726.431 129.478 726.431L128.403 708.593L127.704 699.749C127.704 699.749 126.805 706.244 126.23 712.041C125.718 717.1 124.494 721.672 123.132 731.078C121.958 739.247 120.034 755.649 120.034 755.649C116.612 757.635 111.965 755.986 111.965 755.986C111.965 755.986 110.741 734.575 111.665 727.493Z" fill="#272727"/>
<path d="M116.387 619.415C118.885 619.54 120.684 620.177 120.984 619.415C121.254 618.146 121.442 616.861 121.546 615.567C121.271 614.855 121.021 614.093 121.021 614.093C117.923 612.182 116.949 608.847 116.549 604.95C115.85 598.292 119.447 592.458 126.105 591.771C132.351 591.121 136.96 595.518 138.184 601.552C138.846 604.537 140.158 610.171 138.384 615.068C137.385 617.816 136.11 619.989 134.824 620.414C133.57 620.377 132.318 620.269 131.076 620.089C131.076 620.089 130.739 621.938 130.514 623.125C130.29 624.311 130.377 624.936 132.738 626.385C135.099 627.834 129.165 630.832 125.243 630.545C121.321 630.257 116.999 627.909 115.812 625.398C114.576 622.625 114.688 619.34 116.387 619.415Z" fill="#FFCEA9"/>
<path d="M119.947 619.777C119.26 621.489 120.996 623.525 125.63 625.024C130.265 626.523 130.627 624.599 130.627 624.599C133.707 625.98 136.709 627.527 139.621 629.234C142.394 631.182 143.63 636.729 144.005 646.272C144.43 657.252 144.467 673.529 144.105 676.339C144.105 676.339 138.921 681.511 132.276 680.961C125.63 680.412 114.463 674.541 111.753 670.006C111.828 660.388 113.002 658.764 111.403 653.267C107.831 640.588 105.957 635.392 107.656 626.96C109.08 620.002 111.078 619.14 113.826 619.215C115.875 619.292 117.918 619.479 119.947 619.777Z" fill="#F4F4F4"/>
<path d="M154.472 655.353C149.026 656.727 147.752 653.28 146.978 650.444C145.254 643.549 144.317 637.328 143.018 633.418C141.507 628.809 139.908 628.072 137.659 627.172C135.036 626.123 132.775 628.346 133.65 634.218C134.732 641.012 136.404 647.699 138.646 654.204C139.333 656.353 140.857 660.163 143.13 662.011C145.941 664.285 150.175 664.185 156.583 662.586C159.306 661.911 162.304 660.275 167.476 657.864C168.862 657.215 169.974 656.79 172.61 655.553C175.282 654.349 177.625 652.519 179.442 650.219C180.829 648.196 181.016 647.246 180.691 646.784C180.367 646.322 179.705 646.334 178.968 647.184C177.886 648.619 176.558 649.85 175.045 650.819C175.045 650.819 176.757 649.033 177.693 647.883C178.526 646.855 179.219 645.721 179.755 644.511C180.242 643.336 179.23 641.737 178.505 642.574C177.781 643.411 177.356 644.273 176.007 645.96C175.274 646.861 174.435 647.67 173.509 648.371C174.387 647.186 175.168 645.933 175.845 644.623C176.444 643.598 176.738 642.424 176.694 641.238C176.694 640.626 175.782 639.889 174.958 641.063C174.169 642.667 173.187 644.169 172.035 645.535C170.786 646.784 169.737 647.571 169.699 647.209C169.662 646.847 170.461 646.135 170.948 644.636C171.435 643.137 170.948 641.538 170.124 641.375C169.299 641.213 169.449 641.238 168.775 642.624C167.855 644.074 167.021 645.575 166.277 647.121C165.857 648.571 165.089 649.896 164.041 650.981C162.617 652.468 159.656 654.042 154.472 655.353Z" fill="#FFCEA9"/>
<path d="M135.648 626.235C139.283 625.698 141.894 627.335 143.468 632.843C145.042 638.352 146.191 642.837 146.191 642.837C144.754 644.918 142.571 646.367 140.095 646.884C135.748 647.946 134.174 645.86 134.174 645.86C134.174 645.86 132.925 640.089 132.213 636.154C131.501 632.219 131.202 626.897 135.648 626.235Z" fill="#EDEDED"/>
<path d="M137.972 600.703C137.972 600.703 143.718 591.959 131.264 590.172C122.283 588.923 116.512 594.669 115.837 600.927C115.2 606.911 118.885 613.132 121.546 615.593C122.795 616.055 125.643 616.33 129.315 614.656C129.464 613.028 129.522 611.393 129.49 609.759C129.49 609.759 125.106 600.54 137.972 600.703Z" fill="#131313"/>
</svg>
